<?xml version="1.0" encoding="UTF-8" standalone="no"?>
<!-- Created with Inkscape (http://www.inkscape.org/) -->

<svg
   width="512.0px"
   height="512.0px"
   viewBox="0 0 512.0 512.0"
   version="1.1"
   id="SVGRoot"
   sodipodi:docname="tm_box_dashed.svg"
   inkscape:version="1.1 (c68e22c387, 2021-05-23)"
   xmlns:inkscape="http://www.inkscape.org/namespaces/inkscape"
   xmlns:sodipodi="http://sodipodi.sourceforge.net/DTD/sodipodi-0.dtd"
   xmlns="http://www.w3.org/2000/svg"
   xmlns:svg="http://www.w3.org/2000/svg">
  <sodipodi:namedview
     id="namedview1171"
     pagecolor="#505050"
     bordercolor="#ffffff"
     borderopacity="1"
     inkscape:pageshadow="0"
     inkscape:pageopacity="0"
     inkscape:pagecheckerboard="1"
     inkscape:document-units="px"
     showgrid="true"
     inkscape:zoom="0.35355339"
     inkscape:cx="-335.16861"
     inkscape:cy="239.00209"
     inkscape:window-width="1854"
     inkscape:window-height="1057"
     inkscape:window-x="58"
     inkscape:window-y="-8"
     inkscape:window-maximized="1"
     inkscape:current-layer="layer1">
    <inkscape:grid
       type="xygrid"
       id="grid29322" />
  </sodipodi:namedview>
  <defs
     id="defs1166">
    <marker
       style="overflow:visible"
       id="Arrow1Lstart"
       refX="0.0"
       refY="0.0"
       orient="auto"
       inkscape:stockid="Arrow1Lstart"
       inkscape:isstock="true">
      <path
         transform="scale(0.8) translate(12.5,0)"
         style="fill-rule:evenodd;fill:context-stroke;stroke:context-stroke;stroke-width:1.0pt"
         d="M 0.0,0.0 L 5.0,-5.0 L -12.5,0.0 L 5.0,5.0 L 0.0,0.0 z "
         id="path11900" />
    </marker>
  </defs>
  <g
     inkscape:label="Layer 1"
     inkscape:groupmode="layer"
     id="layer1"
     style="display:inline">
    <path
       id="path6193"
       style="color:#000000;fill:#000000;stroke-linecap:round;stroke-dasharray:36, 72;stroke-dashoffset:93.6;-inkscape-stroke:none"
       d="m 256.0293,2 c -3.4157,0.078921 -6.10981,1.121994 -9.00391,2.3964844 L 215.81836,22.347656 c -8.61705,4.957077 -11.58404,15.961082 -6.62695,24.578125 4.95708,8.617046 15.96108,11.584035 24.57812,6.626953 l 22.19141,-12.763672 22.14062,12.84961 c 8.59815,4.990111 19.61362,2.065071 24.60352,-6.533203 4.99011,-8.598149 2.06507,-19.613615 -6.5332,-24.603516 L 265.03516,4.4316406 C 262.2332,3.0832459 258.96297,2.0758952 256.04102,2 l -0.006,0.00195 z m -93.61719,53.849609 c -3.1598,-0.0047 -6.26515,0.822524 -9.00391,2.398438 l -31.20508,17.949219 c -8.61776,4.956407 -11.58566,15.960571 -6.6289,24.578124 4.9564,8.61776 15.96056,11.58567 24.57812,6.62891 l 31.20508,-17.951175 c 8.61776,-4.956404 11.58567,-15.960569 6.62891,-24.578125 -3.20639,-5.574591 -9.14329,-9.015072 -15.57422,-9.025391 z m 187.03711,0.361329 c -6.43101,-0.01474 -12.38132,3.402675 -15.60938,8.964843 -4.99011,8.598152 -2.06506,19.613619 6.53321,24.603516 l 31.13672,18.070313 c 8.59815,4.99011 19.61361,2.06507 24.60351,-6.5332 4.99011,-8.59815 2.06507,-19.613618 -6.5332,-24.603519 L 358.44336,58.642578 c -2.73268,-1.585862 -5.83464,-2.424503 -8.99414,-2.43164 z M 68.794922,109.70117 c -3.159617,-0.005 -6.264956,0.82126 -9.003906,2.39649 L 28.585938,130.04883 C 19.293912,135.04934 12.084259,140.19212 12,150 v 25.19922 c 0,9.94113 8.058875,18 18,18 8.179383,-0.0669 15.285252,-5.64042 17.298828,-13.56836 l 11.15625,5.91992 c 8.781057,4.65881 19.676218,1.31768 24.335938,-7.46289 4.658808,-8.78106 1.317683,-19.67622 -7.462891,-24.33594 l -8.191406,-4.34765 10.605469,-6.09961 c 8.617052,-4.95708 11.584042,-15.96109 6.626953,-24.57813 -3.206391,-5.57459 -9.143287,-9.01507 -15.574219,-9.02539 z m 374.062498,0.72071 c -6.43031,-0.014 -12.37971,3.40328 -15.60742,8.96484 -4.98878,8.59772 -2.0639,19.61171 6.5332,24.60156 l 9.27539,5.38281 -15.98437,8.5625 c -8.76343,4.69423 -12.0619,15.60401 -7.36719,24.36719 4.69492,8.76271 15.60453,12.06025 24.36719,7.36524 l 18.63476,-9.98438 c 2.03229,7.90501 9.1292,13.45315 17.29102,13.51758 9.94113,0 18,-8.05887 18,-18 V 150 c -1.93651,-11.29388 -7.5196,-14.59694 -15.01172,-19.07617 l -31.13476,-18.07031 c -2.73325,-1.58619 -5.83594,-2.42485 -8.9961,-2.43164 z m -313.00976,74.99023 c -6.42619,0.23006 -12.24158,3.87073 -15.25586,9.55078 -4.66013,8.78152 -1.31883,19.67813 7.46289,24.33789 l 31.80078,16.875 c 8.78106,4.65881 19.67622,1.31768 24.33594,-7.46289 4.66013,-8.78152 1.31883,-19.67813 -7.46289,-24.33789 L 138.92969,187.5 c -2.79158,-1.48114 -5.92389,-2.20124 -9.08203,-2.08789 z m 242.83203,4.39648 c -3.15819,-0.10023 -6.28711,0.63266 -9.07227,2.125 l -31.73437,17 c -8.76271,4.69492 -12.06025,15.60453 -7.36524,24.36719 4.69488,8.76156 15.60304,12.05893 24.36524,7.36524 l 31.73437,-17 c 8.76156,-4.69488 12.05893,-15.60304 7.36524,-24.36524 -3.03615,-5.66862 -8.86573,-9.28699 -15.29297,-9.49219 z M 30,229.19922 c -9.941125,0 -18,8.05887 -18,18 v 36 c 0,9.94113 8.058875,18 18,18 9.941125,0 18,-8.05887 18,-18 v -36 c 0,-9.94113 -8.058875,-18 -18,-18 z m 450,0 c -9.94113,0 -18,8.05887 -18,18 v 36 c 0,9.94113 8.05887,18 18,18 9.94113,0 18,-8.05887 18,-18 v -36 c 0,-9.94113 -8.05887,-18 -18,-18 z m -254.75,6.83594 c -6.4269,0.22937 -12.24319,3.87014 -15.25781,9.55078 -4.66013,8.78152 -1.31883,19.67813 7.46289,24.33789 L 238,280.82617 v 13.57422 c 0,9.94113 8.05887,18 18,18 9.94113,0 18,-8.05887 18,-18 v -13.62305 l 19.89153,-10.88429 c 8.76229,-4.6942 12.06058,-15.60252 7.36719,-24.36524 -3.03649,-5.66922 -8.86698,-9.28768 -15.29492,-9.49219 -3.15819,-0.10023 -6.28711,0.63266 -9.07227,2.125 l -20.93255,11.44094 -21.6289,-11.47851 c -2.791,-1.48081 -5.9226,-2.20089 -9.08008,-2.08789 z M 30,337.19922 c -9.941125,0 -18,8.05887 -18,18 V 360 c 2.146377,12.04747 4.308363,12.30396 16.585938,19.95117 l 31.205078,17.95117 c 8.617554,4.95676 19.621718,1.98886 24.578125,-6.6289 4.957089,-8.61704 1.990099,-19.62105 -6.626953,-24.57813 L 46.845703,348.92383 C 44.226926,341.88353 37.511576,337.20964 30,337.19922 Z m 450,0 c -7.47232,0.0488 -14.13738,4.70934 -16.74805,11.71094 l -29.46875,17.10156 c -8.5971,4.98985 -11.52198,16.00384 -6.5332,24.60156 4.9899,8.59827 16.00537,11.52331 24.60352,6.5332 l 31.13476,-18.07031 C 493.68004,371.97205 497.77014,368.58339 498,360 v -4.80078 c 0,-9.94113 -8.05887,-18 -18,-18 z m -224,11.20117 c -9.94113,0 -18,8.05887 -18,18 v 36 c 0,9.94113 8.05887,18 18,18 9.94113,0 18,-8.05887 18,-18 v -36 c 0,-9.94113 -8.05887,-18 -18,-18 z m 124.50391,51.31836 c -3.1595,0.007 -6.26146,0.84578 -8.99414,2.43164 l -31.13672,18.07031 c -8.59828,4.9899 -11.52332,16.00537 -6.53321,24.60352 4.9899,8.59827 16.00537,11.52331 24.60352,6.5332 l 31.13672,-18.07031 c 8.59827,-4.9899 11.52331,-16.00537 6.5332,-24.60352 -3.22805,-5.56216 -9.17837,-8.97957 -15.60937,-8.96484 z m -249.35547,0.48047 c -6.43093,0.0103 -12.36783,3.4508 -15.57422,9.02539 -4.95676,8.61755 -1.98885,19.62171 6.6289,24.57812 l 31.20508,17.94922 c 8.61704,4.95709 19.62105,1.9901 24.57813,-6.62695 4.95676,-8.61756 1.98885,-19.62172 -6.62891,-24.57812 L 140.15234,402.5957 c -2.73895,-1.57523 -5.84429,-2.40175 -9.0039,-2.39648 z m 155.94726,53.73047 c -3.1595,0.007 -6.26146,0.84578 -8.99414,2.43164 L 272,460 c -0.78711,-9.76562 -8,-16 -16,-16 -8,0 -15.31836,6.06055 -16,16 l -6.23047,-3.55273 c -2.73895,-1.57523 -5.84429,-2.40175 -9.00391,-2.39649 -6.43053,0.01 -12.36732,3.4496 -15.57421,9.02344 -4.95708,8.61704 -1.9901,19.62104 6.62695,24.57812 l 31.20703,17.95118 c 2.84899,1.55698 5.87826,2.39952 8.97461,2.39648 3.11888,-0.003 6.13098,-1.2957 9.03516,-2.43164 l 31.13672,-18.07031 c 8.59827,-4.9899 11.52331,-16.00537 6.5332,-24.60352 -3.22806,-5.56217 -9.17837,-8.97958 -15.60938,-8.96484 z"
       sodipodi:nodetypes="cccscccccccccccccccccccccccccccccscccccccccccccccsccscccccsccccccccccccccssssssssssssssccccsssccsccccccsccccccccccccccscsssssssscccccssccccccccscccccccccaccss" />
  </g>
</svg>
