<?xml version="1.0" encoding="UTF-8" standalone="no"?>
<!DOCTYPE svg PUBLIC "-//W3C//DTD SVG 1.1//EN" "http://www.w3.org/Graphics/SVG/1.1/DTD/svg11.dtd">
<svg width="100%" height="100%" viewBox="0 0 512 512" version="1.1" xmlns="http://www.w3.org/2000/svg" xmlns:xlink="http://www.w3.org/1999/xlink" xml:space="preserve" xmlns:serif="http://www.serif.com/" style="fill-rule:evenodd;clip-rule:evenodd;stroke-linejoin:round;stroke-miterlimit:2;">
    <g transform="matrix(6.12323e-17,1,-1,6.12323e-17,512,0)">
        <g transform="matrix(6.12323e-17,-1,1,6.12323e-17,3.15906,455.806)">
            <path d="M430,126.354C430,61.185 377.17,8.354 312,8.354L200,8.354C134.83,8.354 82,61.185 82,126.354L82,378.276C82,443.445 134.83,496.276 200,496.276L312,496.276C377.17,496.276 430,443.445 430,378.276L430,126.354ZM258.682,44.354L256,257.87L118,259.469L118,378.276C118,423.563 154.713,460.276 200,460.276L312,460.276C357.287,460.276 394,423.563 394,378.276L394,126.354C394,81.067 357.287,44.354 312,44.354L258.682,44.354Z"/>
        </g>
        <g transform="matrix(6.12323e-17,-1,1,6.12323e-17,-3.13509e-14,512)">
            <rect x="27.903" y="20.734" width="24.069" height="147.161" style="fill:rgb(235,235,235);"/>
        </g>
        <g transform="matrix(6.12323e-17,-1,1,6.12323e-17,20.0137,501.806)">
            <path d="M69.972,20.734C69.972,10.792 61.914,2.734 51.972,2.734L27.903,2.734C17.962,2.734 9.903,10.792 9.903,20.734L9.903,167.895C9.903,177.836 17.962,185.895 27.903,185.895L51.972,185.895C61.914,185.895 69.972,177.836 69.972,167.895L69.972,20.734Z"/>
        </g>
    </g>
</svg>
