<?xml version="1.0" encoding="UTF-8" standalone="no"?>
<!DOCTYPE svg PUBLIC "-//W3C//DTD SVG 1.1//EN" "http://www.w3.org/Graphics/SVG/1.1/DTD/svg11.dtd">
<svg width="100%" height="100%" viewBox="0 0 512 512" version="1.1" xmlns="http://www.w3.org/2000/svg" xmlns:xlink="http://www.w3.org/1999/xlink" xml:space="preserve" xmlns:serif="http://www.serif.com/" style="fill-rule:evenodd;clip-rule:evenodd;stroke-linejoin:round;stroke-miterlimit:2;">
    <g>
        <path d="M30.44,296.311C39.338,222.945 55.181,164.05 77.568,119.142C117.336,39.367 177.332,1.412 256.135,2.001C320.024,2.478 370.966,34.015 408.872,90.644C461.755,169.647 488.835,299.906 490,459.869C490.072,469.803 482.065,477.927 472.131,478C462.197,478.072 454.073,470.065 454,460.131C453.631,409.372 450.664,361.732 444.995,318L64.119,318C59.803,360.444 57.771,407.725 58,459.921C58.043,469.856 50.013,477.956 40.079,478C30.144,478.043 22.044,470.013 22,460.079C21.739,400.423 24.464,346.907 30.071,299.396C30.106,298.342 30.231,297.311 30.44,296.311ZM188,52.103C155.894,67.352 129.832,94.992 109.786,135.203C90.759,173.373 77.019,222.21 68.49,282L188,282L188,52.103ZM324.365,56.728L324.027,282L439.562,282C430.83,231.69 418.083,187.456 401.134,150.689C381.412,107.905 356.024,75.557 324.365,56.728Z"/>
    </g>
</svg>
