<?xml version="1.0" encoding="UTF-8" standalone="no"?>
<!DOCTYPE svg PUBLIC "-//W3C//DTD SVG 1.1//EN" "http://www.w3.org/Graphics/SVG/1.1/DTD/svg11.dtd">
<svg width="100%" height="100%" viewBox="0 0 512 512" version="1.1" xmlns="http://www.w3.org/2000/svg" xmlns:xlink="http://www.w3.org/1999/xlink" xml:space="preserve" xmlns:serif="http://www.serif.com/" style="fill-rule:evenodd;clip-rule:evenodd;stroke-linejoin:round;stroke-miterlimit:2;">
    <g transform="matrix(6.12323e-17,1,-1,6.12323e-17,512,0)">
        <path d="M144,370C81.461,370 30,318.539 30,256C30,193.461 81.461,142 144,142L368,142C430.539,142 482,193.461 482,256C482,318.539 430.539,370 368,370L144,370ZM144,178C101.21,178 66,213.21 66,256C66,298.79 101.21,334 144,334L368,334C410.79,334 446,298.79 446,256C446,213.21 410.79,178 368,178L144,178Z"/>
    </g>
    <path d="M161.576,224.12L350.994,223C360.928,222.941 368.946,214.828 368.887,204.894C368.828,194.959 360.715,186.942 350.781,187L161.363,188.12C151.429,188.179 143.411,196.292 143.47,206.226C143.528,216.161 151.642,224.178 161.576,224.12Z"/>
    <path d="M238,51.224L238,202.699C238,212.633 246.066,220.699 256,220.699C265.934,220.699 274,212.633 274,202.699L274,51.224C274,41.289 265.934,33.224 256,33.224C246.066,33.224 238,41.289 238,51.224Z"/>
    <path d="M255.828,50.532L254.873,202.604L159.783,206.358C149.842,103.473 183.864,53.968 255.828,50.532Z"/>
    <path d="M89.176,56.254C87.086,52.442 84.415,49.512 80.866,47.694C74.138,44.246 65.34,44.702 54.39,47.456C44.756,49.879 34.967,44.025 32.544,34.39C30.121,24.756 35.975,14.967 45.61,12.544C67.02,7.159 84.13,8.915 97.283,15.655C111.209,22.791 121.541,35.669 127.253,54.867C128.86,60.27 127.843,66.115 124.505,70.658C118.449,78.9 110.902,85.826 101.927,91.438C109.037,95.861 115.753,100.934 122.073,106.65C127.879,111.9 129.626,120.301 126.394,127.431C118.993,143.76 108.92,155.961 96.084,163.108C82.824,170.491 66.296,172.98 45.358,167.391C35.759,164.829 30.047,154.956 32.609,145.358C35.171,135.759 45.044,130.047 54.642,132.609C64.492,135.238 72.333,135.128 78.571,131.655C81.698,129.913 84.356,127.469 86.686,124.484C74.777,116.339 61.304,110.749 46.32,107.62C37.722,105.824 31.676,98.086 32.013,89.309C32.351,80.532 38.973,73.28 47.683,72.15C64.95,69.909 79.161,65.134 89.176,56.254Z"/>
</svg>
