<?xml version="1.0" encoding="UTF-8" standalone="no"?>
<!DOCTYPE svg PUBLIC "-//W3C//DTD SVG 1.1//EN" "http://www.w3.org/Graphics/SVG/1.1/DTD/svg11.dtd">
<svg width="100%" height="100%" viewBox="0 0 512 512" version="1.1" xmlns="http://www.w3.org/2000/svg" xmlns:xlink="http://www.w3.org/1999/xlink" xml:space="preserve" xmlns:serif="http://www.serif.com/" style="fill-rule:evenodd;clip-rule:evenodd;stroke-linejoin:round;stroke-miterlimit:2;">
    <g>
        <path d="M430,126.354C430,61.185 377.17,8.354 312,8.354L200,8.354C134.83,8.354 82,61.185 82,126.354L82,378.276C82,443.445 134.83,496.276 200,496.276L312,496.276C377.17,496.276 430,443.445 430,378.276L430,126.354ZM258.682,44.354L256,257.87L118,259.469L118,378.276C118,423.563 154.713,460.276 200,460.276L312,460.276C357.287,460.276 394,423.563 394,378.276L394,126.354C394,81.067 357.287,44.354 312,44.354L258.682,44.354Z"/>
    </g>
</svg>
