<?xml version="1.0" encoding="UTF-8" standalone="no"?>
<!DOCTYPE svg PUBLIC "-//W3C//DTD SVG 1.1//EN" "http://www.w3.org/Graphics/SVG/1.1/DTD/svg11.dtd">
<svg width="100%" height="100%" viewBox="0 0 512 512" version="1.1" xmlns="http://www.w3.org/2000/svg" xmlns:xlink="http://www.w3.org/1999/xlink" xml:space="preserve" xmlns:serif="http://www.serif.com/" style="fill-rule:evenodd;clip-rule:evenodd;stroke-linejoin:round;stroke-miterlimit:2;">
    <g transform="matrix(6.12323e-17,1,-1,6.12323e-17,512,0)">
        <path d="M144,370C81.461,370 30,318.539 30,256C30,193.461 81.461,142 144,142L368,142C430.539,142 482,193.461 482,256C482,318.539 430.539,370 368,370L144,370ZM144,178C101.21,178 66,213.21 66,256C66,298.79 101.21,334 144,334L368,334C410.79,334 446,298.79 446,256C446,213.21 410.79,178 368,178L144,178Z"/>
    </g>
    <path d="M161.576,224.12L350.994,223C360.928,222.941 368.946,214.828 368.887,204.894C368.828,194.959 360.715,186.942 350.781,187L161.363,188.12C151.429,188.179 143.411,196.292 143.47,206.226C143.528,216.161 151.642,224.178 161.576,224.12Z"/>
    <path d="M238,51.224L238,202.699C238,212.633 246.066,220.699 256,220.699C265.934,220.699 274,212.633 274,202.699L274,51.224C274,41.289 265.934,33.224 256,33.224C246.066,33.224 238,41.289 238,51.224Z"/>
    <path d="M258.632,51.183L258.368,200.883L352.95,199.338C361.323,103.96 329.806,54.665 258.632,51.183Z"/>
</svg>
